HIERARCHY
ROOT Hips
{
	OFFSET 0.00000 0.00000 0.00000
	CHANNELS 6 Xposition Yposition Zposition Yrotation Zrotation Xrotation 
	JOINT Lumbar
	{
		OFFSET 0 0 0
		CHANNELS 3 Zrotation Xrotation Yrotation
		JOINT Neck
		{
			OFFSET 0.00 0.2701 0.00
			CHANNELS 3 Zrotation Xrotation Yrotation
			End Site
			{
				OFFSET 0.00 0.1379 0.00
			}
		}
		JOINT RightShoulder
		{
			OFFSET 0.0119 0.2289 0.1181
			CHANNELS 3 Zrotation Xrotation Yrotation
			JOINT RightElbow
			{
				OFFSET 0.00 -0.1475 0.00
				CHANNELS 2 Zrotation Yrotation
				JOINT RightWrist
				{
					OFFSET 0.00 -0.1605 0.00
					CHANNELS 2 Zrotation Xrotation
					End Site
					{
						OFFSET 0.0040 -0.1068 0.0006
					}
				}
			}
		}
		JOINT LeftShoulder
		{
			OFFSET 0.0119 0.2289 -0.1181
			CHANNELS 3 Zrotation Xrotation Yrotation
			JOINT LeftElbow
			{
				OFFSET 0.00 -0.1475 0.00
				CHANNELS 2 Zrotation Yrotation
				JOINT LeftWrist
				{
					OFFSET 0.00 -0.1605 0.00
					CHANNELS 2 Zrotation Xrotation
					End Site
					{
						OFFSET 0.0040 -0.1068 -0.0006
					}
				}
			}
		}
	}
	JOINT RightHip
	{
		OFFSET 0.0316 -0.0424 0.0458
		CHANNELS 3 Zrotation Xrotation Yrotation
		JOINT RightKnee
		{
			OFFSET 0.00 -0.2438 0.00
			CHANNELS 1 Zrotation
			JOINT RightAnkle
			{
				OFFSET 0.00 -0.2449 0.00
				CHANNELS 3 Zrotation Xrotation Yrotation
				End Site
				{
					OFFSET 0.1237 -0.0542 0.0051
				}
			}
		}
	}
	JOINT LeftHip
	{
		OFFSET 0.0316 -0.0424 -0.0458
		CHANNELS 3 Zrotation Xrotation Yrotation
		JOINT LeftKnee
		{
			OFFSET 0.00 -0.2438 0.00
			CHANNELS 1 Zrotation
			JOINT LeftAnkle
			{
				OFFSET 0.00 -0.2449 0.00
				CHANNELS 3 Zrotation Xrotation Yrotation
				End Site
				{
					OFFSET 0.1237 -0.0542 -0.0051
				}
			}
		}
	}
}
MOTION
Frames: 27
Frame Time: 0.02
0.48153 0.08791 0.13603 48.92141 -24.72748 -10.5076 48.88673 -0.67898 0.29133 -14.07189 9.02283 -0.83079 -0.4505 -11.64341 44.66774 80.24101 80.93161 -9.69731 -3.63622 -32.31012 22.10204 -6.17825 63.12824 -79.91388 -3.68644 0.22254 30.01552 6.31811 -11.13246 -12.68439 -7.10722 -3.63067 -2.58074 21.39901 20.43398 29.02357 -0.38126 -18.9325 -35.48811 -17.06883
0.48286 0.08823 0.13715 49.06064 -24.61284 -10.4106 48.75742 -0.66208 0.32497 -14.11773 8.94542 -0.83079 -0.46969 -11.66748 44.4841 80.28055 80.94986 -9.75715 -3.64652 -32.31113 22.04652 -6.17229 63.1607 -79.92906 -3.68564 0.24528 29.62637 6.48857 -11.03327 -12.17081 -7.1397 -3.64777 -2.59124 21.32418 20.54804 28.02667 -0.37911 -18.33983 -34.08401 -16.58025
0.48407 0.08854 0.13819 49.17577 -24.4747 -10.31413 48.60821 -0.63776 0.35142 -14.17409 8.86967 -0.83079 -0.48108 -11.67122 44.26731 80.26696 80.96702 -9.81533 -3.65106 -32.39764 21.93176 -6.02762 62.93317 -79.96667 -3.66563 0.25502 29.21196 6.66369 -10.78643 -11.6342 -7.1809 -3.68156 -2.60996 21.2208 20.6454 26.65494 -0.37315 -17.35991 -32.11184 -15.86398
0.48532 0.08885 0.13927 49.29967 -24.35505 -10.2161 48.47335 -0.61792 0.3854 -14.22466 8.79451 -0.83079 -0.49233 -11.69641 44.03598 80.27866 80.98224 -9.87144 -3.65666 -32.44768 21.84501 -5.94286 62.80734 -80.00375 -3.64469 0.26956 28.82416 6.83108 -10.62534 -11.11893 -7.21696 -3.70564 -2.62363 21.14032 20.74765 25.50566 -0.36949 -16.62904 -30.49139 -15.2775
0.48664 0.08917 0.14033 49.4301 -24.20246 -10.12282 48.31705 -0.59265 0.40326 -14.27992 8.71245 -0.83079 -0.52649 -11.65839 43.92833 80.29142 81.00773 -9.94046 -3.6697 -32.49099 21.75466 -5.87196 62.74799 -80.00531 -3.66018 0.29485 28.37345 7.0212 -10.38706 -10.55874 -7.25825 -3.73797 -2.64244 21.01718 20.86037 24.06782 -0.36334 -15.58424 -28.42081 -14.53258
0.48778 0.08946 0.14141 49.54285 -24.11235 -10.02059 48.19914 -0.57737 0.45226 -14.32753 8.64725 -0.83079 -0.50144 -11.76154 43.55642 80.2815 81.01171 -9.98018 -3.66499 -32.56724 21.65703 -5.73736 62.48981 -80.08292 -3.59797 0.28663 28.04705 7.16597 -10.27068 -10.08611 -7.29047 -3.758 -2.65302 20.9764 20.94783 23.16071 -0.36147 -15.09676 -27.16408 -14.07767
0.48852 0.08966 0.14256 49.60497 -24.20729 -9.88745 48.20646 -0.58954 0.58908 -14.354 8.60846 -0.83079 -0.39307 -12.13735 42.45849 80.28508 80.95589 -9.95677 -3.61979 -32.71483 21.55865 -5.48292 61.74318 -80.38059 -3.31257 0.2645 28.07509 7.17761 -10.56706 -9.86349 -7.29476 -3.73366 -2.63496 21.17045 20.96738 23.90544 -0.37272 -16.32579 -28.41733 -14.53023
0.48909 0.08981 0.14374 49.65185 -24.36476 -9.74646 48.25035 -0.61235 0.75725 -14.37186 8.59033 -0.83079 -0.20686 -12.67828 41.10007 80.25198 80.87936 -9.89893 -3.55573 -32.8918 21.45466 -5.16666 60.80654 -80.75078 -2.95243 0.19875 28.22839 7.1446 -10.98417 -9.72957 -7.28792 -3.69856 -2.60947 21.44855 20.96249 25.19054 -0.38843 -18.11536 -30.49547 -15.28033
0.48971 0.08998 0.14491 49.71105 -24.48925 -9.61309 48.26827 -0.63179 0.91068 -14.392 8.57542 -0.83079 -0.01011 -13.22443 39.8595 80.19939 80.8117 -9.84794 -3.49541 -33.0542 21.34909 -4.8625 59.95901 -81.0767 -2.63589 0.09887 28.32067 7.13669 -11.31989 -9.55272 -7.28897 -3.67125 -2.58939 21.68785 20.97048 26.17735 -0.40174 -19.59597 -32.12454 -15.86832
0.49043 0.09017 0.14604 49.74658 -24.63213 -9.46265 48.32544 -0.64524 1.06575 -14.41957 8.50677 -0.83079 -0.02329 -13.43314 38.6059 80.31392 80.743 -9.84168 -3.45464 -33.22533 21.25611 -4.615 59.08999 -81.45029 -2.27854 0.21117 28.42824 7.10923 -11.76185 -9.38454 -7.28589 -3.62813 -2.55929 21.92815 20.97081 27.37245 -0.41609 -21.29213 -34.04644 -16.56128
0.49089 0.09031 0.14726 49.82815 -24.75189 -9.34588 48.3092 -0.67319 1.22521 -14.42926 8.55566 -0.83079 0.4397 -14.38148 37.33571 80.05187 80.6757 -9.72449 -3.3696 -33.38344 21.13985 -4.24415 58.2249 -81.74271 -1.98798 -0.10969 28.53542 7.11109 -12.01384 -9.22167 -7.27924 -3.62039 -2.55037 22.18738 20.98101 28.26689 -0.4299 -22.67704 -35.56119 -17.10903
0.49066 0.09035 0.1487 50.04022 -24.79274 -9.32397 48.08672 -0.74389 1.38679 -14.39388 8.91784 -0.83079 2.0256 -17.35111 35.9346 78.93609 80.58209 -9.39167 -3.15976 -33.50411 20.92983 -3.48233 57.41146 -81.78387 -1.90569 -1.78204 28.59963 7.21045 -11.70772 -9.03506 -7.35179 -3.66447 -2.58157 22.47431 21.02839 28.1992 -0.43924 -23.06949 -35.75294 -17.1849
0.49015 0.09035 0.15022 50.2992 -24.80836 -9.33602 47.7883 -0.82785 1.55215 -14.34059 9.39873 -0.83079 4.12179 -21.05253 34.55544 77.41124 80.49729 -8.93306 -2.90753 -33.6094 20.70194 -2.61027 56.61135 -81.7434 -1.89163 -3.86008 28.66158 7.3394 -11.20878 -8.85411 -7.40913 -3.75096 -2.63699 22.7793 21.08554 27.80732 -0.44996 -23.12888 -35.50305 -17.10217
0.48974 0.09036 0.1517 50.53724 -24.83538 -9.33281 47.52106 -0.9023 1.71741 -14.29368 9.82941 -0.83079 6.09574 -24.41063 33.26191 75.95593 80.43148 -8.47813 -2.67925 -33.71722 20.50364 -1.83378 55.80965 -81.74515 -1.84358 -5.64044 28.73179 7.45157 -10.80015 -8.68144 -7.41147 -3.85294 -2.69591 23.07754 21.13618 27.57217 -0.45913 -23.34216 -35.46393 -17.09615
0.48943 0.0904 0.15317 50.77371 -24.86438 -9.32947 47.2687 -0.99185 1.87707 -14.25286 10.24518 -0.83079 7.60315 -27.83365 31.54876 74.98463 80.2675 -8.24782 -2.42991 -33.8439 20.21732 -0.86781 54.9805 -81.72399 -1.80805 -7.89109 28.77491 7.57778 -10.38002 -8.46543 -7.65768 -3.81815 -2.69783 23.3684 21.19619 27.33655 -0.46534 -23.57103 -35.43505 -17.09378
0.48886 0.09037 0.1547 51.02408 -24.88303 -9.33351 46.9674 -1.05291 2.04872 -14.19653 10.71973 -0.83079 10.21032 -31.27579 30.72684 72.916 80.3108 -7.52025 -2.21539 -33.92859 20.10658 -0.26522 54.21644 -81.735 -1.76042 -9.27007 28.87344 7.68042 -9.94187 -8.34063 -7.41396 -4.06542 -2.81869 23.68302 21.23743 26.99204 -0.48678 -23.67236 -35.23878 -17.02601
0.48767 0.09015 0.1564 51.3077 -24.87413 -9.35857 46.54472 -1.0327 2.25271 -14.09137 11.32869 -0.83079 15.65624 -34.73847 32.28274 67.86116 80.91539 -5.45051 -2.10149 -33.89017 20.51533 -0.74344 53.61186 -81.81373 -1.69045 -8.03738 29.11522 7.72745 -9.4538 -8.45982 -5.63292 -5.19536 -3.31139 24.01322 21.24095 26.65449 -0.47293 -23.57827 -34.95633 -16.96015
0.48623 0.08986 0.15816 51.60272 -24.8564 -9.38827 46.07631 -0.9833 2.46777 -13.9738 11.99207 -0.83079 22.19963 -38.16629 34.74614 61.73289 81.72629 -2.88543 -2.02561 -33.81241 21.09536 -1.5814 53.07705 -81.93504 -1.60105 -5.93241 29.41417 7.74684 -8.96172 -8.6715 -3.39178 -6.58805 -3.91447 24.37409 21.22235 26.17948 -0.48739 -23.35254 -34.47389 -16.8095
0.48488 0.08961 0.15989 51.88827 -24.8457 -9.41002 45.63158 -0.94665 2.67836 -13.86804 12.63011 -0.83079 28.29452 -41.51376 36.85207 56.12534 82.45347 -0.54641 -1.93586 -33.75903 21.57767 -2.22273 52.52173 -82.06334 -1.50281 -4.29636 29.69301 7.76813 -8.50293 -8.84452 -1.48822 -7.7836 -4.43382 24.75129 21.20308 25.60703 -0.54108 -23.13232 -33.89381 -16.59709
0.48361 0.08933 0.16163 52.19301 -24.82116 -9.45761 45.17123 -0.91219 2.88952 -13.73321 13.27625 -0.83079 34.21559 -45.29551 38.74504 50.33954 83.15402 1.80354 -1.82889 -33.67563 22.14496 -3.00278 51.9172 -82.07731 -1.48182 -2.37049 29.94689 7.83544 -7.90784 -9.00307 0.94706 -9.30218 -5.09289 25.00428 21.22911 25.67305 -0.38036 -23.1217 -34.06454 -16.78696
0.48213 0.0891 0.16335 52.46055 -24.82397 -9.45202 44.73449 -0.86666 3.09858 -13.65923 13.91518 -0.83079 40.72696 -48.15169 41.27371 44.70687 83.93952 4.24357 -1.76908 -33.64821 22.57402 -3.5774 51.43444 -82.34099 -1.29405 -0.83319 30.2666 7.79994 -7.59418 -9.21427 2.39802 -10.21806 -5.49041 25.51939 21.15579 24.41297 -0.66606 -22.65811 -32.66749 -16.14065
0.48014 0.08907 0.165 52.61645 -24.90188 -9.29868 44.36647 -0.79248 3.32926 -13.72976 14.53419 -0.83079 48.81353 -48.48532 45.53492 39.49755 85.07866 6.8372 -1.81521 -33.76209 22.59805 -3.52617 51.24668 -83.28748 -0.65155 -0.60432 30.75164 7.48747 -8.09387 -9.54255 0.89576 -9.3333 -5.10744 26.78056 20.8108 19.24712 -2.23595 -20.88502 -26.66312 -13.03481
0.47795 0.0891 0.16662 52.73526 -25.00819 -9.09163 44.02578 -0.70905 3.55203 -13.86642 15.14048 -0.83079 57.41051 -47.88188 50.36732 34.53386 86.26692 9.49862 -1.91009 -33.93756 22.4738 -3.25098 51.18339 -84.48816 0.16 -0.79121 31.30123 7.0725 -8.8713 -9.9215 -1.59073 -7.84584 -4.463 28.2979 20.3675 12.80418 -4.24266 -18.67884 -19.14963 -9.12237
0.47585 0.0891 0.16823 52.87502 -25.10333 -8.90861 43.67776 -0.63328 3.75835 -13.99102 15.74392 -0.83079 65.6353 -47.68553 54.8075 29.62731 87.31833 12.11162 -1.99321 -34.10048 22.4052 -3.05939 51.07911 -85.56453 0.89351 -0.77028 31.82314 6.70394 -9.49938 -10.2811 -3.54557 -6.68179 -3.95884 29.67947 19.97042 7.13038 -6.01181 -16.73267 -12.54555 -5.69332
0.47371 0.08911 0.16991 52.99856 -25.19093 -8.72661 43.30585 -0.54205 4.04872 -14.04158 16.38785 -0.83079 74.50433 -47.56136 59.83926 23.95634 88.85037 14.81743 -2.03543 -34.19869 22.39161 -2.95645 50.91208 -86.66036 1.62731 -0.79571 32.34085 6.33434 -10.22479 -10.62899 -5.83818 -5.31927 -3.36857 31.14749 19.5643 0.65743 -7.94913 -14.51644 -4.99626 -1.77115
0.47163 0.08912 0.17145 53.14612 -25.30096 -8.53064 42.99171 -0.48103 4.1632 -14.25926 16.94111 -0.83079 82.1213 -47.07262 63.76277 19.9677 89.40298 17.33817 -2.17182 -34.4445 22.2266 -2.61173 50.90366 -87.79942 2.40728 -0.83861 32.88089 5.94394 -10.81357 -11.01136 -7.66991 -4.22189 -2.89337 32.49128 19.15617 -4.45591 -9.63663 -12.75968 0.94751 1.31828
0.46977 0.08916 0.17268 53.37619 -25.46733 -8.30138 42.82322 -0.50716 3.78341 -14.94782 17.26875 -0.83079 86.29068 -45.73904 64.47844 20.42126 87.13 19.33948 -2.57422 -35.10234 21.67458 -1.64721 51.30895 -88.78075 3.21193 -0.79593 33.47496 5.51296 -10.95681 -11.48265 -7.96525 -4.01759 -2.8059 33.46842 18.74805 -5.47096 -10.55238 -12.396 2.02115 1.87554
